<svg xmlns="http://www.w3.org/2000/svg" viewBox="0 0 128 128" role="img" aria-labelledby="title desc">
  <title id="title">GeForce NOW Metacritic Score icon</title>
  <desc id="desc">A dark rounded square with a green game grid and a warm score badge.</desc>
  <defs>
    <linearGradient id="bg" x1="18" y1="12" x2="112" y2="116" gradientUnits="userSpaceOnUse">
      <stop offset="0" stop-color="#0f1720" />
      <stop offset="0.55" stop-color="#13251d" />
      <stop offset="1" stop-color="#09110d" />
    </linearGradient>
    <linearGradient id="panel" x1="26" y1="24" x2="74" y2="78" gradientUnits="userSpaceOnUse">
      <stop offset="0" stop-color="#8CF45E" />
      <stop offset="1" stop-color="#37B24D" />
    </linearGradient>
    <linearGradient id="badge" x1="74" y1="62" x2="110" y2="102" gradientUnits="userSpaceOnUse">
      <stop offset="0" stop-color="#F8D977" />
      <stop offset="1" stop-color="#E68A00" />
    </linearGradient>
    <filter id="shadow" x="-20%" y="-20%" width="140%" height="140%">
      <feDropShadow dx="0" dy="6" stdDeviation="8" flood-color="#000000" flood-opacity="0.35" />
    </filter>
  </defs>
  <rect width="128" height="128" rx="28" fill="url(#bg)" />
  <g opacity="0.18">
    <path d="M22 29h84" stroke="#B8FFC9" stroke-width="2" />
    <path d="M22 45h84" stroke="#B8FFC9" stroke-width="2" />
    <path d="M22 61h84" stroke="#B8FFC9" stroke-width="2" />
    <path d="M22 77h84" stroke="#B8FFC9" stroke-width="2" />
    <path d="M22 93h84" stroke="#B8FFC9" stroke-width="2" />
    <path d="M30 21v86" stroke="#B8FFC9" stroke-width="2" />
    <path d="M46 21v86" stroke="#B8FFC9" stroke-width="2" />
    <path d="M62 21v86" stroke="#B8FFC9" stroke-width="2" />
    <path d="M78 21v86" stroke="#B8FFC9" stroke-width="2" />
    <path d="M94 21v86" stroke="#B8FFC9" stroke-width="2" />
  </g>
  <g filter="url(#shadow)">
    <rect x="20" y="20" width="58" height="58" rx="16" fill="#0B120E" stroke="#A1FF8D" stroke-width="2.5" />
    <path d="M33 35h32a3 3 0 0 1 3 3v22a3 3 0 0 1-3 3H33a3 3 0 0 1-3-3V38a3 3 0 0 1 3-3Z" fill="url(#panel)" />
    <path d="M38 31.5h4.5a1.5 1.5 0 0 1 0 3H38a1.5 1.5 0 0 1 0-3Zm17 0h5a1.5 1.5 0 0 1 0 3h-5a1.5 1.5 0 0 1 0-3Z" fill="#C8FFD1" />
    <circle cx="42.5" cy="49" r="4.5" fill="#0B120E" opacity="0.9" />
    <circle cx="55.5" cy="49" r="4.5" fill="#0B120E" opacity="0.9" />
    <path d="M43 58c4.5 3.4 10.5 3.4 15 0" stroke="#0B120E" stroke-linecap="round" stroke-width="3.5" />
  </g>
  <g filter="url(#shadow)">
    <circle cx="89" cy="89" r="23" fill="url(#badge)" />
    <circle cx="89" cy="89" r="20" fill="none" stroke="#FFF5C2" stroke-width="2" opacity="0.65" />
    <path d="M78.5 89.5 84 95l16-16" fill="none" stroke="#432300" stroke-linecap="round" stroke-linejoin="round" stroke-width="5" />
  </g>
</svg>
